<svg width="169" height="50" viewBox="0 0 169 50" fill="none" xmlns="http://www.w3.org/2000/svg">
<g clip-path="url(#clip0_154_3)">
<path d="M162.746 50H5.91125C4.34374 49.9964 2.84155 49.3717 1.73362 48.2629C0.625684 47.154 0.00231068 45.6513 0 44.0837L0 5.9075C0.00231657 4.3408 0.62597 2.83898 1.73415 1.7315C2.84233 0.624023 4.34454 0.00132236 5.91125 0L162.746 0C166.004 0 168.75 2.65 168.75 5.9075V44.0837C168.75 47.34 166.004 50 162.746 50Z" fill="#A6A6A6"/>
<path d="M167.54 44.085C167.54 44.7142 167.416 45.3371 167.175 45.9183C166.934 46.4995 166.581 47.0275 166.136 47.4721C165.691 47.9167 165.162 48.2693 164.581 48.5096C164 48.7499 163.376 48.8732 162.747 48.8725H5.91106C4.63989 48.8739 3.42024 48.3703 2.52034 47.4725C1.62043 46.5747 1.11396 45.3562 1.1123 44.085V5.9063C1.11396 4.63456 1.62023 3.41545 2.51996 2.51667C3.41968 1.61788 4.63931 1.11288 5.91106 1.11255H162.746C163.376 1.11255 163.999 1.23655 164.58 1.47748C165.162 1.7184 165.69 2.07152 166.135 2.51668C166.58 2.96184 166.933 3.49031 167.174 4.0719C167.415 4.6535 167.539 5.27683 167.539 5.9063L167.54 44.085Z" fill="black"/>
<path d="M37.6604 24.73C37.6241 20.7012 40.9591 18.7412 41.1116 18.65C39.2229 15.8962 36.2954 15.52 35.2666 15.49C32.8079 15.2312 30.4229 16.9612 29.1704 16.9612C27.8929 16.9612 25.9641 15.515 23.8854 15.5575C21.2104 15.5987 18.7079 17.1475 17.3354 19.5525C14.5029 24.4562 16.6154 31.6625 19.3291 35.6262C20.6866 37.5675 22.2729 39.735 24.3491 39.6587C26.3804 39.575 27.1391 38.3637 29.5904 38.3637C32.0191 38.3637 32.7316 39.6587 34.8491 39.61C37.0291 39.575 38.4016 37.66 39.7116 35.7012C41.2804 33.4762 41.9104 31.285 41.9354 31.1725C41.8841 31.155 37.7016 29.5587 37.6604 24.73ZM33.6604 12.8825C34.7529 11.5162 35.5004 9.65749 35.2929 7.77124C33.7116 7.84124 31.7341 8.86499 30.5954 10.2012C29.5879 11.3787 28.6879 13.3087 28.9204 15.1237C30.6966 15.2562 32.5204 14.2275 33.6604 12.8825Z" fill="white"/>
<path d="M67.0555 39.38H64.2167L62.6617 34.4937H57.2567L55.7755 39.38H53.0117L58.3667 22.745H61.6742L67.0555 39.38ZM62.193 32.4437L60.7867 28.1C60.638 27.6562 60.3592 26.6112 59.948 24.9662H59.898C59.6486 26.0143 59.3852 27.059 59.108 28.1L57.7267 32.4437H62.193ZM80.8267 33.235C80.8267 35.275 80.2755 36.8875 79.173 38.0712C78.1855 39.125 76.9592 39.6512 75.4955 39.6512C73.9155 39.6512 72.7805 39.0837 72.0892 37.9487H72.0392V44.2675H69.3742V31.3337C69.3742 30.0512 69.3405 28.735 69.2755 27.385H71.6192L71.768 29.2862H71.818C72.7067 27.8537 74.0555 27.1387 75.8655 27.1387C77.2805 27.1387 78.4617 27.6975 79.4067 28.8162C80.3542 29.9362 80.8267 31.4087 80.8267 33.235ZM78.1117 33.3325C78.1117 32.165 77.8492 31.2025 77.3217 30.445C76.7455 29.655 75.9717 29.26 75.0017 29.26C74.3442 29.26 73.7467 29.48 73.213 29.9137C72.678 30.3512 72.328 30.9225 72.1642 31.63C72.0817 31.96 72.0405 32.23 72.0405 32.4425V34.4425C72.0405 35.315 72.308 36.0512 72.843 36.6525C73.378 37.2537 74.073 37.5537 74.928 37.5537C75.9317 37.5537 76.713 37.1662 77.2717 36.3937C77.8317 35.62 78.1117 34.6 78.1117 33.3325ZM94.623 33.235C94.623 35.275 94.0717 36.8875 92.968 38.0712C91.9817 39.125 90.7555 39.6512 89.2917 39.6512C87.7117 39.6512 86.5767 39.0837 85.8867 37.9487H85.8367V44.2675H83.1717V31.3337C83.1717 30.0512 83.138 28.735 83.073 27.385H85.4167L85.5655 29.2862H85.6155C86.503 27.8537 87.8517 27.1387 89.663 27.1387C91.0767 27.1387 92.258 27.6975 93.2055 28.8162C94.1492 29.9362 94.623 31.4087 94.623 33.235ZM91.908 33.3325C91.908 32.165 91.6442 31.2025 91.1167 30.445C90.5405 29.655 89.7692 29.26 88.798 29.26C88.1429 29.2598 87.5088 29.4913 87.008 29.9137C86.473 30.3512 86.1242 30.9225 85.9605 31.63C85.8792 31.96 85.8367 32.23 85.8367 32.4425V34.4425C85.8367 35.315 86.1042 36.0512 86.6367 36.6525C87.1717 37.2525 87.8667 37.5537 88.7242 37.5537C89.728 37.5537 90.5092 37.1662 91.068 36.3937C91.628 35.62 91.908 34.6 91.908 33.3325ZM110.048 34.715C110.048 36.13 109.557 37.2812 108.57 38.17C107.487 39.1412 105.978 39.6262 104.039 39.6262C102.249 39.6262 100.814 39.2812 99.728 38.59L100.345 36.3687C101.515 37.0762 102.799 37.4312 104.198 37.4312C105.202 37.4312 105.983 37.2037 106.544 36.7512C107.103 36.2987 107.382 35.6912 107.382 34.9337C107.382 34.2587 107.152 33.69 106.69 33.2287C106.232 32.7675 105.465 32.3387 104.395 31.9425C101.483 30.8562 100.028 29.265 100.028 27.1725C100.028 25.805 100.538 24.6837 101.559 23.8112C102.577 22.9375 103.934 22.5012 105.632 22.5012C107.145 22.5012 108.403 22.765 109.407 23.2912L108.74 25.4637C107.803 24.9537 106.743 24.6987 105.557 24.6987C104.619 24.6987 103.887 24.93 103.362 25.39C103.149 25.5783 102.979 25.8104 102.864 26.0703C102.749 26.3303 102.692 26.612 102.695 26.8962C102.695 27.5537 102.949 28.0975 103.459 28.525C103.903 28.92 104.709 29.3475 105.879 29.8087C107.31 30.385 108.362 31.0587 109.038 31.8312C109.712 32.6012 110.048 33.565 110.048 34.715ZM118.859 29.385H115.922V35.2087C115.922 36.69 116.439 37.43 117.477 37.43C117.953 37.43 118.348 37.3887 118.66 37.3062L118.734 39.33C118.209 39.5262 117.518 39.625 116.662 39.625C115.609 39.625 114.787 39.3037 114.193 38.6625C113.602 38.02 113.304 36.9425 113.304 35.4287V29.3825H111.554V27.3825H113.304V25.1862L115.922 24.3962V27.3825H118.859V29.385ZM132.113 33.2837C132.113 35.1275 131.586 36.6412 130.533 37.825C129.429 39.0437 127.964 39.6512 126.138 39.6512C124.378 39.6512 122.977 39.0675 121.932 37.9C120.887 36.7325 120.364 35.2587 120.364 33.4825C120.364 31.6237 120.902 30.1012 121.98 28.9175C123.057 27.7325 124.509 27.14 126.336 27.14C128.096 27.14 129.512 27.7237 130.58 28.8925C131.603 30.0262 132.113 31.49 132.113 33.2837ZM129.348 33.37C129.348 32.2637 129.112 31.315 128.633 30.5237C128.074 29.5662 127.275 29.0887 126.241 29.0887C125.169 29.0887 124.356 29.5675 123.797 30.5237C123.318 31.3162 123.082 32.28 123.082 33.42C123.082 34.5262 123.318 35.475 123.797 36.265C124.373 37.2225 125.178 37.7 126.217 37.7C127.234 37.7 128.033 37.2125 128.609 36.24C129.101 35.4337 129.348 34.475 129.348 33.37ZM140.776 29.7287C140.498 29.6786 140.217 29.6539 139.936 29.655C138.998 29.655 138.273 30.0087 137.763 30.7175C137.319 31.3425 137.097 32.1325 137.097 33.0862V39.38H134.433L134.458 31.1625C134.458 29.78 134.424 28.5212 134.358 27.3862H136.679L136.777 29.6812H136.851C137.132 28.8925 137.576 28.2575 138.183 27.7812C138.739 27.3651 139.415 27.1397 140.109 27.1387C140.355 27.1387 140.578 27.1562 140.776 27.1875V29.7287ZM152.694 32.815C152.701 33.2201 152.668 33.6249 152.597 34.0237H144.602C144.633 35.2087 145.019 36.115 145.762 36.74C146.436 37.2987 147.307 37.5787 148.377 37.5787C149.561 37.5787 150.641 37.39 151.612 37.0112L152.029 38.8612C150.894 39.3562 149.554 39.6025 148.008 39.6025C146.148 39.6025 144.688 39.055 143.626 37.9612C142.566 36.8675 142.034 35.3987 142.034 33.5562C142.034 31.7475 142.528 30.2412 143.517 29.04C144.552 27.7575 145.951 27.1162 147.711 27.1162C149.439 27.1162 150.748 27.7575 151.637 29.04C152.341 30.0587 152.694 31.3187 152.694 32.815ZM150.153 32.1237C150.171 31.3337 149.997 30.6512 149.636 30.075C149.174 29.3337 148.466 28.9637 147.512 28.9637C146.641 28.9637 145.932 29.325 145.391 30.05C144.947 30.6262 144.683 31.3175 144.602 32.1225H150.153V32.1237Z" fill="white"/>
<path d="M61.3132 12.5113C61.3132 13.9826 60.872 15.0901 59.9907 15.8338C59.1745 16.5201 58.0145 16.8638 56.512 16.8638C55.767 16.8638 55.1295 16.8313 54.5957 16.7663V8.72757C55.292 8.61507 56.042 8.55757 56.852 8.55757C58.2832 8.55757 59.362 8.86882 60.0895 9.49132C60.9045 10.1951 61.3132 11.2013 61.3132 12.5113ZM59.932 12.5476C59.932 11.5938 59.6795 10.8626 59.1745 10.3526C58.6695 9.84382 57.932 9.58882 56.9607 9.58882C56.5482 9.58882 56.197 9.61632 55.9057 9.67382V15.7851C56.067 15.8101 56.362 15.8213 56.7907 15.8213C57.7932 15.8213 58.567 15.5426 59.112 14.9851C59.657 14.4276 59.932 13.6151 59.932 12.5476ZM68.637 13.7963C68.637 14.7026 68.3782 15.4451 67.8607 16.0276C67.3182 16.6263 66.5995 16.9251 65.702 16.9251C64.837 16.9251 64.1482 16.6388 63.6345 16.0638C63.122 15.4901 62.8657 14.7663 62.8657 13.8938C62.8657 12.9813 63.1295 12.2326 63.6595 11.6513C64.1895 11.0701 64.902 10.7788 65.7995 10.7788C66.6645 10.7788 67.3595 11.0651 67.8857 11.6388C68.3857 12.1963 68.637 12.9163 68.637 13.7963ZM67.2782 13.8388C67.2782 13.2951 67.1607 12.8288 66.927 12.4401C66.652 11.9701 66.2607 11.7351 65.752 11.7351C65.2257 11.7351 64.8257 11.9701 64.5507 12.4401C64.3157 12.8288 64.1995 13.3026 64.1995 13.8626C64.1995 14.4063 64.317 14.8726 64.5507 15.2613C64.8345 15.7313 65.2295 15.9663 65.7395 15.9663C66.2395 15.9663 66.632 15.7276 66.9145 15.2488C67.157 14.8526 67.2782 14.3826 67.2782 13.8388ZM78.457 10.8988L76.6132 16.7913H75.4132L74.6495 14.2326C74.4591 13.6065 74.301 12.9711 74.1757 12.3288H74.152C74.0389 12.9737 73.8806 13.6099 73.6782 14.2326L72.867 16.7913H71.6532L69.9195 10.8988H71.2657L71.932 13.7001C72.0932 14.3626 72.2257 14.9938 72.332 15.5913H72.3557C72.4532 15.0988 72.6145 14.4713 72.842 13.7126L73.6782 10.9001H74.7457L75.547 13.6526C75.7407 14.3238 75.8982 14.9701 76.0195 15.5926H76.0557C76.1445 14.9863 76.2782 14.3401 76.4557 13.6526L77.1707 10.9001H78.457V10.8988ZM85.2482 16.7913H83.9382V13.4163C83.9382 12.3763 83.5432 11.8563 82.7507 11.8563C82.5707 11.851 82.392 11.8869 82.228 11.9612C82.064 12.0355 81.9191 12.1463 81.8045 12.2851C81.5645 12.5663 81.4352 12.9254 81.4407 13.2951V16.7901H80.1307V12.5826C80.1307 12.0651 80.1145 11.5038 80.0832 10.8963H81.2345L81.2957 11.8176H81.332C81.4845 11.5313 81.712 11.2951 82.0107 11.1063C82.3657 10.8863 82.7632 10.7751 83.1982 10.7751C83.7482 10.7751 84.2057 10.9526 84.5695 11.3088C85.022 11.7451 85.2482 12.3963 85.2482 13.2613V16.7913ZM88.8607 16.7913H87.552V8.19507H88.8607V16.7913ZM96.5732 13.7963C96.5732 14.7026 96.3145 15.4451 95.797 16.0276C95.2545 16.6263 94.5345 16.9251 93.6382 16.9251C92.772 16.9251 92.0832 16.6388 91.5707 16.0638C91.0582 15.4901 90.802 14.7663 90.802 13.8938C90.802 12.9813 91.0657 12.2326 91.5957 11.6513C92.1257 11.0701 92.8382 10.7788 93.7345 10.7788C94.6007 10.7788 95.2945 11.0651 95.822 11.6388C96.322 12.1963 96.5732 12.9163 96.5732 13.7963ZM95.2132 13.8388C95.2132 13.2951 95.0957 12.8288 94.862 12.4401C94.5882 11.9701 94.1957 11.7351 93.6882 11.7351C93.1607 11.7351 92.7607 11.9701 92.487 12.4401C92.252 12.8288 92.1357 13.3026 92.1357 13.8626C92.1357 14.4063 92.2532 14.8726 92.487 15.2613C92.7707 15.7313 93.1657 15.9663 93.6757 15.9663C94.1757 15.9663 94.567 15.7276 94.8495 15.2488C95.0932 14.8526 95.2132 14.3826 95.2132 13.8388ZM102.913 16.7913H101.737L101.639 16.1126H101.603C101.201 16.6538 100.627 16.9251 99.882 16.9251C99.3257 16.9251 98.8757 16.7463 98.537 16.3913C98.3848 16.2316 98.2657 16.0433 98.1865 15.8374C98.1074 15.6314 98.0697 15.4119 98.0757 15.1913C98.0757 14.4713 98.3757 13.9226 98.9795 13.5426C99.582 13.1626 100.429 12.9763 101.521 12.9851V12.8751C101.521 12.0988 101.113 11.7113 100.297 11.7113C99.7157 11.7113 99.2032 11.8576 98.7607 12.1476L98.4945 11.2876C99.042 10.9488 99.7182 10.7788 100.516 10.7788C102.056 10.7788 102.828 11.5913 102.828 13.2163V15.3863C102.828 15.9751 102.857 16.4438 102.913 16.7913ZM101.553 14.7663V13.8576C100.108 13.8326 99.3857 14.2288 99.3857 15.0451C99.3857 15.3526 99.4682 15.5826 99.637 15.7363C99.8129 15.8923 100.042 15.9746 100.277 15.9663C100.564 15.9663 100.833 15.8751 101.078 15.6938C101.227 15.5895 101.348 15.4505 101.431 15.2889C101.513 15.1273 101.555 14.9479 101.553 14.7663ZM110.357 16.7913H109.194L109.133 15.8451H109.097C108.726 16.5651 108.093 16.9251 107.204 16.9251C106.494 16.9251 105.903 16.6463 105.434 16.0888C104.966 15.5313 104.732 14.8076 104.732 13.9188C104.732 12.9651 104.986 12.1926 105.496 11.6026C105.989 11.0526 106.594 10.7776 107.314 10.7776C108.106 10.7776 108.659 11.0438 108.974 11.5776H108.999V8.19507H110.311V15.2038C110.311 15.7776 110.326 16.3063 110.357 16.7913ZM108.999 14.3063V13.3238C109.012 13.0972 108.972 12.8708 108.884 12.6618C108.795 12.4527 108.661 12.2666 108.489 12.1176C108.248 11.9047 107.935 11.79 107.613 11.7963C107.124 11.7963 106.742 11.9901 106.461 12.3788C106.182 12.7676 106.041 13.2638 106.041 13.8701C106.041 14.4526 106.174 14.9251 106.443 15.2888C106.727 15.6763 107.109 15.8701 107.588 15.8701C108.018 15.8701 108.362 15.7088 108.623 15.3851C108.876 15.0863 108.999 14.7263 108.999 14.3063ZM121.561 13.7963C121.561 14.7026 121.302 15.4451 120.784 16.0276C120.242 16.6263 119.524 16.9251 118.626 16.9251C117.762 16.9251 117.073 16.6388 116.558 16.0638C116.046 15.4901 115.789 14.7663 115.789 13.8938C115.789 12.9813 116.053 12.2326 116.583 11.6513C117.113 11.0701 117.826 10.7788 118.724 10.7788C119.588 10.7788 120.284 11.0651 120.809 11.6388C121.309 12.1963 121.561 12.9163 121.561 13.7963ZM120.203 13.8388C120.203 13.2951 120.086 12.8288 119.852 12.4401C119.576 11.9701 119.186 11.7351 118.676 11.7351C118.151 11.7351 117.751 11.9701 117.474 12.4401C117.239 12.8288 117.123 13.3026 117.123 13.8626C117.123 14.4063 117.241 14.8726 117.474 15.2613C117.758 15.7313 118.153 15.9663 118.663 15.9663C119.163 15.9663 119.557 15.7276 119.839 15.2488C120.081 14.8526 120.203 14.3826 120.203 13.8388ZM128.604 16.7913H127.296V13.4163C127.296 12.3763 126.901 11.8563 126.107 11.8563C125.718 11.8563 125.404 11.9988 125.162 12.2851C124.919 12.5713 124.798 12.9088 124.798 13.2951V16.7901H123.487V12.5826C123.487 12.0651 123.472 11.5038 123.441 10.8963H124.591L124.652 11.8176H124.688C124.849 11.5254 125.083 11.2802 125.367 11.1063C125.723 10.8863 126.119 10.7751 126.556 10.7751C127.104 10.7751 127.562 10.9526 127.926 11.3088C128.379 11.7451 128.604 12.3963 128.604 13.2613V16.7913ZM137.421 11.8801H135.978V14.7426C135.978 15.4701 136.234 15.8338 136.742 15.8338C136.977 15.8338 137.172 15.8138 137.326 15.7726L137.359 16.7663C137.101 16.8638 136.761 16.9126 136.342 16.9126C135.824 16.9126 135.422 16.7551 135.131 16.4401C134.838 16.1251 134.693 15.5951 134.693 14.8513V11.8801H133.832V10.8988H134.693V9.81882L135.977 9.43132V10.8976H137.419V11.8801H137.421ZM144.356 16.7913H143.044V13.4413C143.044 12.3851 142.649 11.8563 141.858 11.8563C141.251 11.8563 140.836 12.1626 140.608 12.7751C140.565 12.9284 140.544 13.0871 140.547 13.2463V16.7901H139.238V8.19507H140.547V11.7463H140.572C140.984 11.1001 141.576 10.7776 142.342 10.7776C142.884 10.7776 143.333 10.9551 143.689 11.3113C144.133 11.7551 144.356 12.4151 144.356 13.2876V16.7913ZM151.509 13.5663C151.509 13.8013 151.492 13.9988 151.461 14.1601H147.532C147.549 14.7426 147.737 15.1863 148.101 15.4938C148.433 15.7688 148.862 15.9063 149.387 15.9063C149.968 15.9063 150.498 15.8138 150.976 15.6276L151.181 16.5376C150.622 16.7801 149.964 16.9013 149.203 16.9013C148.291 16.9013 147.572 16.6326 147.052 16.0951C146.529 15.5576 146.271 14.8363 146.271 13.9313C146.271 13.0426 146.512 12.3026 146.998 11.7126C147.506 11.0826 148.192 10.7676 149.058 10.7676C149.906 10.7676 150.549 11.0826 150.984 11.7126C151.336 12.2126 151.509 12.8313 151.509 13.5663ZM150.259 13.2276C150.278 12.8743 150.189 12.5237 150.006 12.2213C149.778 11.8576 149.432 11.6751 148.963 11.6751C148.759 11.6716 148.557 11.7185 148.375 11.8116C148.193 11.9046 148.037 12.0411 147.921 12.2088C147.698 12.5054 147.564 12.8583 147.532 13.2276H150.259Z" fill="white"/>
</g>
<defs>
<clipPath id="clip0_154_3">
<rect width="168.75" height="50" fill="white"/>
</clipPath>
</defs>
</svg>
